<svg xmlns="http://www.w3.org/2000/svg" version="1.0" preserveAspectRatio="xMidYMid meet" viewBox="53 234 396.44 31.82">

<g transform="translate(0.000000,500.000000) scale(0.100000,-0.100000)" fill="#000000" stroke="none">
<path d="M536 2651 c-4 -6 3 -15 14 -21 18 -10 20 -20 20 -131 0 -112 -1 -121 -20 -126 -37 -10 -20 -23 30 -23 50 0 67 13 30 23 -18 5 -20 14 -20 113 0 79 3 105 11 97 6 -6 48 -60 93 -119 44 -59 87 -109 94 -112 9 -3 12 28 12 133 0 128 1 137 20 142 37 10 20 23 -30 23 -50 0 -67 -13 -30 -23 18 -5 20 -14 20 -97 0 -52 -4 -89 -9 -86 -5 4 -42 49 -81 101 -40 52 -82 97 -94 101 -11 3 -28 8 -38 10 -9 3 -19 0 -22 -5z"/>
<path d="M1141 2643 c-72 -38 -99 -123 -67 -208 25 -63 65 -90 138 -90 50 0 62 4 85 27 32 32 23 51 -10 21 -66 -61 -149 -21 -171 83 -10 46 12 121 42 145 52 41 134 7 104 -42 -18 -29 3 -44 33 -25 28 18 31 58 5 81 -30 27 -115 31 -159 8z"/>
<path d="M2220 2652 c-89 -39 -122 -137 -80 -230 35 -76 142 -104 210 -54 95 71 94 213 -2 272 -33 20 -97 26 -128 12z m114 -42 c71 -85 29 -250 -64 -250 -89 0 -132 169 -63 251 35 42 91 41 127 -1z"/>
<path d="M2505 2635 c-48 -47 -30 -102 48 -141 29 -15 60 -33 70 -42 39 -34 5 -92 -54 -92 -36 0 -53 23 -45 60 5 25 2 30 -14 30 -28 0 -46 -41 -31 -68 14 -27 79 -47 123 -38 70 13 105 90 62 137 -10 12 -45 34 -76 50 -60 30 -76 55 -58 89 7 14 21 20 44 20 42 0 65 -24 48 -50 -15 -24 0 -35 28 -20 27 14 26 55 -2 74 -13 9 -43 16 -71 16 -38 0 -53 -5 -72 -25z"/>
<path d="M3930 2637 c-122 -81 -85 -276 56 -293 59 -8 123 29 152 86 28 56 28 104 -1 154 -42 73 -140 99 -207 53z m121 -7 c35 -20 51 -67 47 -143 -3 -63 -7 -72 -36 -98 -51 -45 -104 -33 -137 31 -31 59 -12 184 32 209 23 13 69 14 94 1z"/>
<path d="M885 2640 c3 -5 13 -10 21 -10 11 0 14 -23 14 -126 0 -117 -1 -126 -20 -131 -41 -11 -18 -23 45 -23 63 0 86 12 45 23 -19 5 -20 14 -20 125 0 113 1 120 23 135 21 15 19 16 -46 16 -43 1 -66 -3 -62 -9z"/>
<path d="M1365 2640 c3 -5 13 -10 21 -10 11 0 14 -23 14 -126 0 -117 -1 -126 -20 -131 -41 -11 -18 -23 45 -23 63 0 86 12 45 23 -17 4 -20 14 -20 66 0 75 6 74 85 -19 54 -64 63 -70 97 -70 21 0 38 5 38 10 0 6 -6 10 -13 10 -15 0 -147 132 -147 147 0 4 23 32 50 61 34 35 59 52 75 52 14 0 25 5 25 10 0 6 -25 10 -55 10 -50 0 -73 -12 -42 -23 7 -2 -12 -28 -48 -63 l-60 -59 -3 55 c-3 47 0 56 20 72 23 17 22 18 -45 18 -43 0 -66 -4 -62 -10z"/>
<path d="M1812 2627 c18 -15 39 -57 66 -132 55 -150 53 -145 66 -145 6 0 26 44 45 98 55 157 68 182 91 182 11 0 20 5 20 10 0 6 -25 10 -56 10 -34 0 -53 -4 -49 -10 3 -5 13 -10 21 -10 8 0 14 -2 14 -5 0 -6 -70 -198 -74 -202 -2 -2 -20 44 -41 102 -39 109 -52 125 -102 125 l-28 0 27 -23z"/>
<path d="M2727 2643 c-4 -3 -7 -21 -7 -40 0 -23 5 -33 15 -33 8 0 15 7 15 15 0 22 37 55 60 55 19 0 20 -7 20 -131 0 -122 -1 -131 -20 -136 -41 -11 -18 -23 45 -23 63 0 86 12 45 23 -19 5 -20 14 -20 136 0 112 2 131 16 131 27 0 52 -19 58 -45 6 -23 29 -33 27 -12 -1 4 -1 21 -1 37 l0 30 -123 0 c-68 0 -127 -3 -130 -7z"/>
<path d="M3020 2641 c0 -5 9 -11 20 -14 19 -5 20 -14 20 -127 0 -113 -1 -122 -20 -127 -41 -11 -18 -23 45 -23 63 0 86 12 45 23 -17 4 -20 14 -20 61 0 31 3 56 6 56 18 0 46 -26 74 -70 18 -28 41 -55 51 -60 23 -13 79 -13 79 0 0 6 -6 10 -13 10 -27 0 -120 121 -98 128 7 2 24 14 38 26 34 30 34 73 -1 103 -24 21 -37 23 -127 23 -54 0 -99 -4 -99 -9z m157 -12 c34 -13 43 -25 43 -65 0 -39 -17 -54 -70 -61 l-40 -6 0 66 c0 77 11 88 67 66z"/>
<path d="M3345 2640 c3 -5 12 -10 20 -10 11 0 14 -24 17 -102 4 -129 1 -149 -23 -155 -40 -11 -16 -23 46 -23 63 0 86 12 45 23 -19 5 -20 14 -20 127 0 113 1 122 20 127 42 11 18 23 -46 23 -41 0 -63 -4 -59 -10z"/>
<path d="M3520 2641 c0 -5 9 -11 20 -14 19 -5 20 -14 20 -127 0 -113 -1 -122 -20 -127 -41 -11 -18 -23 45 -23 63 0 86 12 45 23 -17 4 -20 13 -20 69 l1 63 72 -78 c65 -70 75 -77 110 -77 20 0 37 5 37 10 0 6 -6 10 -13 10 -7 0 -46 34 -87 75 l-74 75 49 51 c28 27 62 53 78 56 50 10 39 23 -18 23 -48 0 -56 -3 -51 -16 7 -17 -43 -84 -81 -109 l-23 -15 0 60 c0 46 3 60 14 60 8 0 18 5 21 10 4 6 -18 10 -59 10 -36 0 -66 -4 -66 -9z"/>
<path d="M4208 2632 c15 -12 40 -63 71 -147 27 -74 54 -130 61 -130 7 0 33 56 60 130 34 94 53 133 69 141 39 20 35 24 -25 24 -54 -1 -57 -2 -39 -15 19 -15 19 -17 -14 -115 -18 -55 -34 -100 -35 -100 -2 0 -21 45 -41 101 -21 55 -45 107 -52 115 -8 8 -29 14 -46 14 l-32 0 23 -18z"/>
</g>
</svg>