<?xml version="1.0" standalone="no"?>
<!DOCTYPE svg PUBLIC "-//W3C//DTD SVG 20010904//EN"
 "http://www.w3.org/TR/2001/REC-SVG-20010904/DTD/svg10.dtd">
<svg version="1.0" xmlns="http://www.w3.org/2000/svg"
 width="200.000000pt" height="200.000000pt" viewBox="0 0 200.000000 200.000000"
 preserveAspectRatio="xMidYMid meet">

<g transform="translate(0.000000,200.000000) scale(0.100000,-0.100000)"
fill="#000000" stroke="none">
<path d="M600 1401 c0 -6 12 -16 28 -23 l27 -14 -3 -164 c-3 -148 -6 -167 -23
-182 -32 -27 -22 -33 46 -30 63 4 88 17 43 24 -23 3 -23 6 -25 158 l-3 155 25
-30 c14 -16 71 -98 127 -182 55 -84 105 -150 110 -147 4 3 8 21 8 40 0 35 18
46 38 22 6 -7 36 -96 68 -198 31 -102 58 -186 60 -188 1 -2 11 1 21 6 12 7 46
79 93 198 52 130 80 189 92 192 10 2 18 11 18 18 0 11 -19 14 -80 14 -47 0
-80 -4 -80 -10 0 -5 12 -10 28 -10 43 0 56 -13 48 -51 -12 -59 -101 -284 -111
-281 -12 4 -84 255 -85 294 0 20 7 29 33 39 31 13 28 14 -57 17 l-89 3 7 106
c3 58 6 126 6 150 0 37 4 45 25 53 45 17 27 30 -40 30 -51 0 -65 -3 -65 -15 0
-8 9 -15 20 -15 19 0 20 -7 20 -152 l0 -152 -75 109 c-42 61 -93 136 -113 167
l-37 58 -52 0 c-29 0 -53 -4 -53 -9z"/>
</g>
</svg>
